<?xml version="1.0" encoding="utf-8"?>
<!-- Generator: Adobe Illustrator 21.0.2, SVG Export Plug-In . SVG Version: 6.00 Build 0)  -->
<svg version="1.1" id="Layer_1" xmlns="http://www.w3.org/2000/svg" xmlns:xlink="http://www.w3.org/1999/xlink" x="0px" y="0px"
	 viewBox="0 0 32 32" style="enable-background:new 0 0 32 32;" xml:space="preserve">
<style type="text/css">
	.st0{fill:#FFFFFF;}
</style>
<path class="st0" d="M16,0C7.2,0,0,7.2,0,16c0,8.8,7.2,16,16,16s16-7.2,16-16C32,7.2,24.8,0,16,0z M19.5,16.2c0,4.4-2.9,7.3-7.3,7.3
	c-4.2,0-7.7-3.4-7.7-7.6c0-4.2,3.5-7.6,7.7-7.6c1.9,0,3.7,0.7,5.1,1.9l-2,2.2c-0.9-0.7-2-1.1-3.1-1.1c-2.6,0-4.7,2.1-4.7,4.6
	s2.1,4.6,4.7,4.6c2.2,0,3.6-1.1,4.1-2.9h-4.1v-2.9h7.2V16.2z M25.3,16.5v2.2h-1.8v-2.2h-2.2v-1.8h2.2v-2.2h1.8v2.2h2.2v1.8H25.3z"/>
</svg>
